<?xml version="1.0" encoding="UTF-8" standalone="no"?>
<svg
   width="502"
   height="660"
   fill="none"
   version="1.1"
   id="svg119"
   sodipodi:docname="illustration-progress-large.svg"
   inkscape:version="1.1.1 (3bf5ae0d25, 2021-09-20)"
   xmlns:inkscape="http://www.inkscape.org/namespaces/inkscape"
   xmlns:sodipodi="http://sodipodi.sourceforge.net/DTD/sodipodi-0.dtd"
   xmlns="http://www.w3.org/2000/svg"
   xmlns:svg="http://www.w3.org/2000/svg">
  <sodipodi:namedview
     id="namedview121"
     pagecolor="#ffffff"
     bordercolor="#666666"
     borderopacity="1.0"
     inkscape:pageshadow="2"
     inkscape:pageopacity="0.0"
     inkscape:pagecheckerboard="0"
     showgrid="false"
     inkscape:zoom="6.1625427"
     inkscape:cx="350.26126"
     inkscape:cy="326.81315"
     inkscape:window-width="3360"
     inkscape:window-height="1780"
     inkscape:window-x="-12"
     inkscape:window-y="648"
     inkscape:window-maximized="1"
     inkscape:current-layer="svg119" />
  <mask
     id="a"
     maskUnits="userSpaceOnUse"
     x="0"
     y="0"
     width="502"
     height="660">
    <path
       fill="#fff"
       d="M0 0h502v660H0z"
       id="path2" />
  </mask>
  <g
     mask="url(#a)"
     id="g39">
    <path
       fill="url(#paint0_linear)"
       d="M-32-154h605v986H-32z"
       id="path5" />
    <path
       d="M250.85-244.101L-26.082 208.938 250.85 82.547v-326.648z"
       stroke="url(#paint1_linear)"
       stroke-width=".8"
       stroke-dasharray="1"
       id="path7" />
    <path
       d="M250.85 424.809v218.292L-26.082 265.568 250.85 424.809z"
       stroke="url(#paint2_linear)"
       stroke-width=".8"
       stroke-dasharray="1"
       id="path9" />
    <path
       opacity=".498"
       d="M250.85-244.101l276.931 453.039L250.85 82.547v-326.648z"
       stroke="url(#paint3_linear)"
       stroke-width=".8"
       stroke-dasharray="1"
       id="path11" />
    <path
       d="M250.85 424.809v218.292l276.931-377.533L250.85 424.809z"
       stroke="url(#paint4_linear)"
       stroke-width=".8"
       stroke-dasharray="1"
       id="path13" />
    <path
       d="M250.85-500L-186 214.383 250.85 15.081V-500z"
       stroke="url(#paint5_linear)"
       stroke-width=".8"
       stroke-dasharray="1"
       id="path15" />
    <path
       opacity=".436"
       d="M252.15 554.782V899L-184.7 303.681l436.85 251.101z"
       stroke="url(#paint6_linear)"
       stroke-width=".8"
       stroke-dasharray="1"
       id="path17" />
    <path
       opacity=".498"
       d="M250.85-500L687.7 214.383 250.85 15.081V-500z"
       stroke="url(#paint7_linear)"
       stroke-width=".8"
       stroke-dasharray="1"
       id="path19" />
    <path
       d="M251.15 554.782V899L688 303.681 251.15 554.782z"
       stroke="url(#paint8_linear)"
       stroke-width=".8"
       stroke-dasharray="1"
       id="path21" />
    <path
       d="M-26 208.655L251 366V83L-26 208.655z"
       stroke="url(#paint9_linear)"
       stroke-width=".8"
       stroke-dasharray="1"
       id="path23" />
    <path
       d="M528 208.655L251 366V83l277 125.655z"
       stroke="url(#paint10_linear)"
       stroke-width=".8"
       stroke-dasharray="1"
       id="path25" />
    <path
       d="M263.229 392.882c54.036 0 97.841-43.678 97.841-97.557 0-53.879-43.805-97.556-97.841-97.556-54.037 0-97.842 43.677-97.842 97.556s43.805 97.557 97.842 97.557z"
       fill="url(#paint11_linear)"
       id="path27" />
    <path
       d="M334.258 269.798c7.012 9.465 8.366 16.923 8.366 28.539 0 14.09-5.826 27.105-15.75 37.646l6.041 22.48h18.339l19.309-21.835 5.178-31.945 1.079-19.038-19.094-21.512-23.468 5.665z"
       fill="#B4C3E5"
       id="path29" />
    <path
       d="M119.432 361.044l3.344 13.23s39.482 80.778 128.37 110.787c0 0 80.869-34.419 116.791-92.824l-49.585-43.132s-23.732 18.823-59.007 18.823-83.171-20.974-83.171-64.213c0-43.239 49.622-59.05 49.622-59.05l-21.143-5.163h-54.045l-34.304 82.391 3.128 39.151z"
       fill="url(#paint12_linear)"
       id="path31" />
    <path
       d="M418.136 270.241c-1.51-1.506-34.954-48.998-155.018-90.193-6.171-2.398-11.216-.409-11.216-.409-111.521 28.355-166.234 86.877-166.234 90.602 0 3.726 15.965 59.719 26.321 82.521.863 1.936 14.671 26.245 24.919 39.475-6.041-13.23-12.621-24.739-12.621-44.53 0-55.824 43.365-101.214 97.626-103.15 1.294 0 2.697 0 3.991.108l-12.945-12.907s52.104-8.713 118.985 31.622c0 0 .971 2.044 0 8.067 0 0 31.5 13.553 34.197 39.905 2.696 26.352-14.024 41.41-27.508 43.561 0 0 7.011-10.863-3.776-16.671-2.265-1.291-4.962-1.829-7.659-1.721-20.604 0-22.977 23.448-22.977 23.448-.216 1.183-.216 2.366-.216 3.549 0 0-3.452 34.312 57.821 33.666 0 0 31.067-35.064 39.266-66.579 3.02-11.616 5.178-20.329 6.58-26.782 3.452-9.143 6.796-22.611 10.032-32.399l.432-1.183z"
       fill="#DCE4F6"
       id="path33" />
    <path
       opacity=".895"
       d="M305.299 273.813c.863-.43 3.668-1.828 6.904-5.162 6.472.86 12.837 2.904 12.837 2.904-11.758-7.099-27.832-11.294-45.631-11.187 0 0 6.796 9.681 25.674 13.661l.216-.216z"
       fill="#fff"
       id="path35" />
    <path
       fill-rule="evenodd"
       clip-rule="evenodd"
       d="M255.246 174.344c17.044 5.594 99.136 34.66 164.076 90.599l1.511 1.096-.324 1.865c0 .439-7.12 42.996-31.068 90.818-14.131 28.188-31.283 52.758-50.916 72.939-24.164 24.789-52.104 43.106-83.279 54.513l-1.834.658-1.942.768-1.834-.658-1.833-.658c-31.176-11.408-59.223-29.725-83.279-54.513-19.633-20.291-36.785-44.751-50.917-72.939-22.955-45.946-30.35-86.852-31.018-90.55a10.98 10.98 0 0 0-.05-.268l-.323-1.865 1.402-1.206c64.94-55.939 147.033-85.005 164.077-90.599l3.775-1.206 2.158.658 1.618.548zm78.532 252.711c19.202-19.743 35.922-43.764 49.73-71.295 20.712-41.35 28.587-78.533 30.205-86.979-66.558-56.706-150.808-85.004-162.243-88.733-11.542 3.729-95.684 32.027-162.242 88.733 1.618 8.556 9.385 45.738 30.204 87.199 13.808 27.53 30.529 51.441 49.73 71.184 23.84 24.46 51.456 42.338 82.308 53.416 30.852-11.078 58.468-29.066 82.308-53.525z"
       fill="url(#paint13_linear)"
       id="path37" />
  </g>
  <defs
     id="defs117">
    <linearGradient
       id="paint0_linear"
       x1="882.223"
       y1="333.522"
       x2="-2.164"
       y2="-203.166"
       gradientUnits="userSpaceOnUse">
      <stop
         stop-color="#95BBCE"
         id="stop41" />
      <stop
         offset=".463"
         stop-color="#C5D0E6"
         id="stop43" />
      <stop
         offset="1"
         stop-color="#E7E4F6"
         id="stop45" />
    </linearGradient>
    <linearGradient
       id="paint1_linear"
       x1="801.702"
       y1="-188.9"
       x2="-216.857"
       y2="-597.403"
       gradientUnits="userSpaceOnUse">
      <stop
         stop-color="#fff"
         id="stop48" />
      <stop
         offset="1"
         stop-color="#fff"
         id="stop50" />
    </linearGradient>
    <linearGradient
       id="paint2_linear"
       x1="801.702"
       y1="311.57"
       x2="-158.327"
       y2="-150.465"
       gradientUnits="userSpaceOnUse">
      <stop
         stop-color="#fff"
         id="stop53" />
      <stop
         offset="1"
         stop-color="#fff"
         id="stop55" />
    </linearGradient>
    <linearGradient
       id="paint3_linear"
       x1="-300.002"
       y1="-188.9"
       x2="718.556"
       y2="-597.403"
       gradientUnits="userSpaceOnUse">
      <stop
         stop-color="#fff"
         id="stop58" />
      <stop
         offset=".068"
         stop-color="#fff"
         id="stop60" />
      <stop
         offset="1"
         stop-color="#fff"
         id="stop62" />
    </linearGradient>
    <linearGradient
       id="paint4_linear"
       x1="-300.002"
       y1="311.57"
       x2="660.026"
       y2="-150.465"
       gradientUnits="userSpaceOnUse">
      <stop
         stop-color="#fff"
         id="stop65" />
      <stop
         offset="1"
         stop-color="#fff"
         id="stop67" />
    </linearGradient>
    <linearGradient
       id="paint5_linear"
       x1="1119.8"
       y1="-412.954"
       x2="-486.772"
       y2="-1057.53"
       gradientUnits="userSpaceOnUse">
      <stop
         stop-color="#fff"
         id="stop70" />
      <stop
         offset="1"
         stop-color="#fff"
         id="stop72" />
    </linearGradient>
    <linearGradient
       id="paint6_linear"
       x1="1121.1"
       y1="376.219"
       x2="-393.096"
       y2="-352.797"
       gradientUnits="userSpaceOnUse">
      <stop
         stop-color="#fff"
         id="stop75" />
      <stop
         offset="1"
         stop-color="#fff"
         id="stop77" />
    </linearGradient>
    <linearGradient
       id="paint7_linear"
       x1="-618.099"
       y1="-412.954"
       x2="988.473"
       y2="-1057.53"
       gradientUnits="userSpaceOnUse">
      <stop
         stop-color="#fff"
         id="stop80" />
      <stop
         offset=".068"
         stop-color="#fff"
         id="stop82" />
      <stop
         offset="1"
         stop-color="#fff"
         id="stop84" />
    </linearGradient>
    <linearGradient
       id="paint8_linear"
       x1="-617.8"
       y1="376.219"
       x2="896.396"
       y2="-352.797"
       gradientUnits="userSpaceOnUse">
      <stop
         stop-color="#fff"
         id="stop87" />
      <stop
         offset="1"
         stop-color="#fff"
         id="stop89" />
    </linearGradient>
    <linearGradient
       id="paint9_linear"
       x1="801.988"
       y1="117.483"
       x2="-35.363"
       y2="-420.259"
       gradientUnits="userSpaceOnUse">
      <stop
         stop-color="#fff"
         stop-opacity=".01"
         id="stop92" />
      <stop
         offset="1"
         stop-color="#fff"
         id="stop94" />
    </linearGradient>
    <linearGradient
       id="paint10_linear"
       x1="-299.988"
       y1="117.483"
       x2="537.363"
       y2="-420.259"
       gradientUnits="userSpaceOnUse">
      <stop
         stop-color="#fff"
         stop-opacity=".01"
         id="stop97" />
      <stop
         offset="1"
         stop-color="#fff"
         id="stop99" />
    </linearGradient>
    <linearGradient
       id="paint11_linear"
       x1="433.353"
       y1="299.866"
       x2="305.967"
       y2="178.15"
       gradientUnits="userSpaceOnUse">
      <stop
         stop-color="#D4DDF3"
         id="stop102" />
      <stop
         offset="1"
         stop-color="#B4C3E5"
         id="stop104" />
    </linearGradient>
    <linearGradient
       id="paint12_linear"
       x1="180.157"
       y1="173.767"
       x2="62.76"
       y2="382.648"
       gradientUnits="userSpaceOnUse">
      <stop
         stop-color="#B7C5E4"
         id="stop107" />
      <stop
         offset="1"
         stop-color="#ECF2FF"
         id="stop109" />
    </linearGradient>
    <linearGradient
       id="paint13_linear"
       x1="-167.595"
       y1="156.348"
       x2="-31.625"
       y2="650.698"
       gradientUnits="userSpaceOnUse">
      <stop
         stop-color="#F9FAFF"
         id="stop112" />
      <stop
         offset="0"
         stop-color="#FDFDFF"
         id="stop114" />
    </linearGradient>
  </defs>
  <path
     style="fill:#dce4f6;fill-opacity:1;stroke-width:0.229485"
     d="m 202.42316,350.42296 c -3.77929,-2.5789 -5.97905,-4.43265 -9.78045,-8.24201 -3.2452,-3.25199 -5.86528,-6.34762 -7.41951,-8.76617 l -0.38636,-0.60122 44.98596,-47.07722 c 24.74228,-25.89247 44.98596,-47.16498 44.98596,-47.27226 0,-0.54708 14.70244,4.42334 22.14534,7.48663 6.84512,2.81726 6.38533,2.57537 5.92101,3.11501 -0.22735,0.26423 -2.83832,3.01482 -5.80217,6.11243 -4.38288,4.58067 -5.49668,5.62681 -5.96662,5.60416 -0.3178,-0.0153 -2.36266,-0.1444 -4.54415,-0.28686 -4.99657,-0.32629 -7.1637,-0.33186 -7.1637,-0.0184 0,0.39292 3.19759,3.45846 4.9982,4.79178 0.91887,0.6804 1.64175,1.31632 1.6064,1.41316 -0.10895,0.29847 -81.21802,85.11914 -81.39448,85.11914 -0.0912,0 -1.07463,-0.62017 -2.18543,-1.37815 z"
     id="path1525" />
  <path
     style="fill:#dce4f6;fill-opacity:1;stroke-width:0.229485"
     d="m 238.20584,365.53355 c -0.50487,-0.12481 -2.2088,-0.54052 -3.78651,-0.92381 -5.97912,-1.45255 -13.21929,-3.97992 -19.04042,-6.64655 l -2.07847,-0.95214 2.6095,-2.66234 c 1.43522,-1.46429 19.31553,-20.16634 39.73401,-41.56011 20.41848,-21.39378 37.70484,-39.48328 38.41413,-40.1989 l 1.28963,-1.30112 2.63908,0.89191 c 1.45149,0.49055 3.59264,1.12179 4.75811,1.40276 2.05666,0.49583 2.14412,0.49889 2.97171,0.10425 1.32733,-0.63296 3.04709,-1.83315 4.93522,-3.44419 l 1.72959,-1.47577 2.38499,0.41399 c 2.51299,0.43621 6.1566,1.28758 8.75063,2.04468 0.85196,0.24866 1.54902,0.37325 1.54902,0.27686 0,-0.28161 -6.53292,-3.56122 -9.37567,-4.7067 -3.05479,-1.23092 -8.12172,-2.88436 -10.64833,-3.47477 l -1.77992,-0.41592 2.12526,-2.19519 c 1.16889,-1.20735 3.32842,-3.44863 4.79896,-4.98061 l 2.67371,-2.78542 5.01294,2.63783 c 2.75712,1.45081 7.03963,3.81461 9.51669,5.2529 5.13418,2.98111 4.79041,2.53849 4.79041,6.16784 v 2.1195 l -46.1269,48.28123 c -25.3698,26.55467 -46.30747,48.29821 -46.52816,48.31897 -0.2207,0.0208 -0.81434,-0.0644 -1.31921,-0.18918 z"
     id="path1564" />
  <path
     style="fill:#dce4f6;fill-opacity:1;stroke-width:0.229485"
     d="m 260.27383,365.46015 c 1.2416,-1.32271 19.76146,-20.7231 41.15524,-43.11196 25.75198,-26.94978 38.95511,-40.60963 39.06743,-40.41885 0.33507,0.56912 1.30431,4.99599 1.59631,7.29091 0.46506,3.65507 0.39581,13.67798 -0.11555,16.72435 -1.55947,9.29029 -5.16073,17.49284 -11.05776,25.18611 -0.95711,1.24864 -1.99443,2.43683 -2.30516,2.64043 -0.31073,0.2036 -0.56497,0.51579 -0.56497,0.69375 0,0.17797 -0.43889,0.68047 -0.97531,1.11667 -0.85548,0.69565 -1.22907,0.82612 -3.04068,1.06192 -7.24307,0.94273 -12.79511,5.07653 -16.50521,12.28907 -0.95568,1.85786 -2.88631,7.19542 -2.88631,7.97971 0,0.35953 -0.54684,0.63812 -4.93393,2.51359 -12.64072,5.40387 -26.72695,8.43589 -39.20462,8.43868 l -2.48695,5.6e-4 z"
     id="path1603" />
  <path
     style="fill:#dce4f6;fill-opacity:1;stroke-width:0.229485"
     d="m 339.53231,353.35158 c 0.97606,-2.06389 1.44314,-4.43296 1.32347,-6.71286 -0.0823,-1.56877 -0.23418,-2.18012 -0.85436,-3.4399 -1.80305,-3.66251 -6.12973,-6.3421 -10.79358,-6.68466 -0.9527,-0.07 -1.87006,-0.1703 -2.03857,-0.22293 -0.19664,-0.0614 0.34239,-0.85597 1.50484,-2.21816 7.58866,-8.89255 11.82448,-17.85936 13.53182,-28.64553 0.3221,-2.03484 0.41152,-3.87988 0.39956,-8.24395 -0.0253,-9.23433 -1.037,-14.48283 -3.91068,-20.28798 -0.55647,-1.12413 -0.9618,-2.09384 -0.90074,-2.15491 0.1582,-0.1582 4.65966,2.71263 7.23722,4.61557 9.79925,7.23449 16.48784,15.71696 19.3978,24.60027 2.59117,7.91014 2.48932,18.54374 -0.25794,26.93038 -3.64395,11.12399 -12.08606,19.95219 -22.03583,23.04358 -0.99466,0.30905 -2.13791,0.62379 -2.54055,0.69942 l -0.73206,0.13753 z"
     id="path1642" />
  <path
     style="fill:#dce4f6;fill-opacity:1;stroke-width:0.229485"
     d="m 253.00765,367.61701 c -4.12995,-0.28566 -11.43977,-1.26362 -12.93164,-1.73008 -0.34699,-0.1085 0.0728,-0.64346 2.29486,-2.92421 1.49574,-1.53529 4.2725,-4.39073 6.17058,-6.34543 3.85029,-3.96516 21.38353,-22.23455 33.14306,-34.53461 4.22342,-4.41755 9.75537,-10.20055 12.29322,-12.85111 2.53785,-2.65055 9.19788,-9.62117 14.80008,-15.49026 16.70709,-17.50304 23.2404,-24.32545 23.29464,-24.32545 0.0282,0 6.8e-4,0.44956 -0.0613,0.99902 l -0.11261,0.99902 2.49302,1.31089 c 1.37116,0.72099 2.62407,1.48483 2.78424,1.69743 0.16016,0.2126 0.44314,0.56726 0.62884,0.78814 0.18569,0.22088 0.28264,0.4016 0.21545,0.4016 -0.0672,0 0.13356,0.43889 0.44612,0.97531 0.31255,0.53643 0.92663,1.86737 1.36461,2.95766 l 0.79633,1.98234 -2.90397,2.95181 c -3.27624,3.33022 -8.30555,8.51166 -12.89203,13.28202 -1.70093,1.76912 -4.33183,4.50573 -5.84643,6.08136 -1.5146,1.57562 -4.87083,5.08408 -7.45827,7.79657 -2.58745,2.71249 -5.95059,6.22361 -7.47364,7.8025 -1.52305,1.57889 -5.07931,5.29752 -7.9028,8.26362 -8.88113,9.32971 -9.66549,10.15241 -12.14706,12.74087 -1.33339,1.39083 -3.50597,3.66273 -4.82796,5.04868 -1.32199,1.38595 -3.49244,3.65586 -4.8232,5.04424 -3.74732,3.90956 -11.3297,11.88169 -14.00059,14.72024 l -2.40959,2.56086 -1.14743,-0.0102 c -0.63109,-0.006 -2.33502,-0.0924 -3.78651,-0.19279 z"
     id="path1681" />
  <path
     style="fill:#dce4f6;fill-opacity:1;stroke-width:0.229485"
     d="m 303.26495,273.5177 c -5.48515,-1.48185 -8.21518,-2.47163 -11.938,-4.32817 -4.35429,-2.17145 -7.72857,-4.54875 -10.43682,-7.35311 l -1.37692,-1.42578 4.13074,0.14943 c 14.0713,0.50905 26.57484,3.486 37.37282,8.89805 1.24386,0.62343 2.2098,1.18527 2.14653,1.24854 -0.0633,0.0633 -1.39077,-0.19707 -2.95001,-0.57852 -1.55924,-0.38145 -4.01029,-0.90348 -5.44676,-1.16007 l -2.61178,-0.46653 -1.45887,1.3647 c -1.45834,1.36421 -3.45385,2.82127 -4.83782,3.53244 -0.81166,0.41708 -1.39131,0.44369 -2.59311,0.11902 z"
     id="path1720" />
  <path
     style="fill:#dce4f6;fill-opacity:1;stroke-width:0.229485"
     d="m 210.77339,355.62046 c -1.20398,-0.66313 -3.09928,-1.7555 -4.21178,-2.42748 l -2.02272,-1.22178 2.26924,-2.32253 c 3.15278,-3.22681 6.85968,-7.08003 13.38325,-13.91153 3.07346,-3.21854 6.73588,-7.03947 8.13872,-8.49096 1.40284,-1.4515 5.94976,-6.20185 10.10425,-10.55633 4.1545,-4.35449 8.59543,-9.00157 9.86873,-10.32685 1.2733,-1.32527 3.5466,-3.70045 5.05177,-5.27816 1.50517,-1.57771 3.9214,-4.10779 5.3694,-5.62239 4.23604,-4.4309 7.07952,-7.40718 9.5384,-9.98388 1.26535,-1.32598 3.43659,-3.59909 4.82497,-5.05136 6.59955,-6.90323 10.92278,-11.46738 11.95172,-12.61775 l 1.12895,-1.26217 2.33632,1.39307 c 1.28498,0.76619 3.2729,1.79421 4.4176,2.28449 1.1447,0.49028 2.08127,0.99447 2.08127,1.12042 0,0.12595 -1.26504,1.52642 -2.8112,3.11216 -2.65619,2.72418 -4.44053,4.58054 -10.3774,10.79624 -1.38463,1.44967 -3.60491,3.77321 -4.93393,5.16342 -1.32903,1.39021 -3.5493,3.71375 -4.93394,5.16342 -1.38464,1.44967 -3.60706,3.77172 -4.93871,5.1601 -1.33166,1.38839 -4.5851,4.79625 -7.22986,7.57302 -2.64477,2.77677 -5.84847,6.133 -7.11933,7.45828 -1.27087,1.32527 -3.54076,3.70045 -5.04421,5.27816 -1.50346,1.57771 -3.82605,4.00452 -5.16132,5.39291 -1.33526,1.38838 -4.63742,4.84788 -7.33813,7.68776 -2.7007,2.83988 -6.05335,6.35247 -7.45032,7.80575 -1.39698,1.45328 -3.72542,3.88008 -5.17432,5.3929 -5.08782,5.31228 -9.24059,9.52028 -9.38376,9.50859 -0.0795,-0.007 -1.12968,-0.55438 -2.33366,-1.21752 z"
     id="path1759" />
  <path
     style="fill:#dce4f6;fill-opacity:1;stroke-width:0.229485"
     d="m 183.42764,330.40085 c -3.3522,-5.88166 -5.2638,-11.10644 -6.41777,-17.54102 -0.46519,-2.59396 -0.52681,-3.66872 -0.52372,-9.13591 0.004,-6.77097 0.1954,-8.49454 1.48373,-13.34774 4.08119,-15.37401 15.3528,-28.72958 32.59491,-38.62125 4.73605,-2.71704 13.82796,-6.89401 15.00603,-6.89401 0.19665,0 0.35755,-0.0768 0.35755,-0.17061 0,-0.0938 -2.85345,-3.02542 -6.34101,-6.51465 l -6.34101,-6.34404 1.12022,-0.14607 c 4.72359,-0.61594 13.88829,-0.7767 20.40091,-0.35787 12.23645,0.78693 23.98076,2.71394 35.84737,5.88186 l 3.95282,1.05525 -1.42848,1.53714 c -4.14485,4.46012 -88.36769,92.49281 -88.48933,92.49218 -0.079,-4.6e-4 -0.62898,-0.85238 -1.22222,-1.89326 z"
     id="path1798" />
  <path
     style="fill:#dce4f6;fill-opacity:1;stroke-width:0.229485"
     d="m 159.03338,299.33313 c -9.34006,-5.24975 -17.0176,-9.57761 -17.06121,-9.61746 -0.11873,-0.10848 3.01008,-4.505 4.97424,-6.98966 3.27999,-4.14919 8.73082,-10.03672 8.97144,-9.6902 0.0727,0.10473 5.27548,3.07657 11.56168,6.60408 9.85679,5.53115 11.41517,6.47681 11.32558,6.87263 -0.0571,0.25243 -0.4828,1.8896 -0.94594,3.63814 -0.46313,1.74855 -0.78799,3.32009 -0.72191,3.49231 0.0661,0.17222 0.013,0.37933 -0.11789,0.46025 -0.13094,0.0809 -0.17768,0.38771 -0.10388,0.68174 0.0738,0.29404 0.0187,0.60597 -0.12238,0.69318 -0.15371,0.095 -0.20879,0.5146 -0.13741,1.0468 0.0655,0.48853 0.0356,0.83663 -0.0664,0.77354 -0.28668,-0.17718 -0.51987,4.26876 -0.42592,8.12065 0.0465,1.90752 0.0323,3.46614 -0.0317,3.46361 -0.064,-0.003 -7.75818,-4.29985 -17.09824,-9.54961 z"
     id="path1837" />
  <path
     style="fill:#dce4f6;fill-opacity:1;stroke-width:0.229485"
     d="m 308.41879,429.95739 c -7.69396,-4.32471 -40.68391,-22.86611 -73.311,-41.20311 -32.62709,-18.337 -70.45862,-39.59948 -84.07006,-47.24996 l -24.74809,-13.90996 0.13157,-0.69043 c 0.19938,-1.04632 1.28774,-6.15019 1.39509,-6.54232 1.54306,-5.63656 5.17726,-15.65776 5.42826,-14.96831 0.0476,0.1306 11.96232,6.90611 26.47728,15.05669 l 26.39082,14.81922 2.04784,2.47145 c 11.23249,13.55595 29.1922,23.58055 50.22186,28.0324 l 3.15983,0.66892 48.7369,27.38923 c 40.67266,22.85728 48.70443,27.45044 48.54066,27.75913 -0.28921,0.54509 -11.42602,11.7074 -14.10749,14.13978 l -2.30444,2.09037 z"
     id="path2352" />
  <path
     style="fill:#dce4f6;fill-opacity:1;stroke-width:0.229485"
     d="m 297.6052,392.79712 c -24.25421,-13.64951 -44.06667,-24.84958 -44.02769,-24.88904 0.039,-0.0395 3.05057,-0.10526 6.69244,-0.14622 4.41807,-0.0497 7.61434,-0.20176 9.60488,-0.45702 1.64082,-0.2104 3.44801,-0.43193 4.01599,-0.49229 1.40474,-0.14926 2.02524,-0.25458 3.06853,-0.52084 0.48863,-0.1247 1.02034,-0.1761 1.18158,-0.11423 0.16125,0.0619 0.36394,-0.002 0.45044,-0.14196 0.0865,-0.13996 0.34642,-0.19443 0.57761,-0.12106 0.2312,0.0734 0.48078,0.0356 0.55463,-0.0839 0.0739,-0.1195 0.34072,-0.16329 0.59303,-0.0973 0.26792,0.0701 0.45874,0.007 0.45874,-0.15175 0,-0.16331 0.17542,-0.21604 0.43966,-0.13218 0.24181,0.0768 0.50868,0.0279 0.59303,-0.10861 0.0844,-0.13648 0.35121,-0.18536 0.59302,-0.10861 0.24182,0.0768 0.43966,0.039 0.43966,-0.0839 0,-0.1229 0.20654,-0.16945 0.45897,-0.10344 0.25244,0.066 0.45897,0.0144 0.45897,-0.11474 0,-0.12912 0.20654,-0.18076 0.45897,-0.11474 0.25244,0.066 0.45897,0.0144 0.45897,-0.11475 0,-0.12912 0.20654,-0.18075 0.45898,-0.11474 0.25243,0.066 0.4592,0.0305 0.45949,-0.0788 2.3e-4,-0.10939 0.321,-0.21043 0.71269,-0.22454 0.39168,-0.0141 0.77871,-0.11739 0.86004,-0.22949 0.0813,-0.1121 0.4567,-0.22666 0.83414,-0.25458 0.37744,-0.0279 0.71973,-0.1512 0.76065,-0.27397 0.0409,-0.12276 0.22263,-0.16632 0.40381,-0.0968 0.18117,0.0695 0.3294,0.032 0.3294,-0.0834 0,-0.6503 2.02666,0.26991 8.18295,3.71547 3.76659,2.10809 6.95931,3.95205 7.09493,4.09769 0.13563,0.14564 0.5385,1.03932 0.89526,1.98594 4.79617,12.72595 19.0701,21.04233 39.93604,23.26782 1.76703,0.18846 3.6775,0.38808 4.24548,0.44358 0.73136,0.0715 1.84513,0.56008 3.81713,1.67453 l 2.78444,1.57361 -2.54129,3.33004 c -5.03395,6.59636 -11.46377,14.24886 -11.93631,14.20609 -0.14889,-0.0135 -20.11505,-11.19229 -44.36926,-24.8418 z"
     id="path2391" />
  <path
     style="fill:#dce4f6;fill-opacity:1;stroke-width:0.229485"
     d="m 300.9701,368.83952 c -2.08258,-1.19854 -5.36189,-2.99546 -7.28736,-3.99314 -3.22062,-1.66877 -3.52887,-1.92681 -2.54106,-2.12712 0.16762,-0.034 0.56294,-0.1677 0.87849,-0.29711 0.31554,-0.12942 1.3257,-0.50569 2.2448,-0.83617 2.74708,-0.98776 7.43461,-2.89636 8.56434,-3.48712 0.58081,-0.30371 1.12297,-0.48525 1.2048,-0.40342 0.0818,0.0818 0.14878,0.0222 0.14878,-0.13249 0,-0.1547 0.0886,-0.22653 0.19686,-0.15961 0.10827,0.0669 0.0464,0.97661 -0.13757,2.02154 -0.40832,2.31965 -0.26561,8.0903 0.25124,10.15946 0.18891,0.75626 0.3254,1.38837 0.30333,1.40469 -0.0221,0.0163 -1.74407,-0.95096 -3.82665,-2.14951 z"
     id="path2430" />
  <path
     style="fill:#dce4f6;fill-opacity:1;stroke-width:0.0286857"
     d="m 351.01956,407.22996 c -0.023,-0.008 0.0129,-0.0747 0.1004,-0.18617 0.0749,-0.0953 0.19421,-0.24803 0.26521,-0.3393 0.071,-0.0913 0.38128,-0.48658 0.68951,-0.87849 0.74466,-0.94681 1.19499,-1.53107 2.3512,-3.05044 0.29415,-0.38654 0.72708,-0.95452 0.96206,-1.26217 0.78888,-1.03285 1.07552,-1.41424 1.06786,-1.42086 -0.004,-0.004 -0.17542,-0.10075 -0.38052,-0.21584 -0.2051,-0.11509 -0.502,-0.28212 -0.65977,-0.37116 -2.51304,-1.41834 -3.06373,-1.71955 -3.6568,-2.00015 -0.64751,-0.30636 -1.04491,-0.46174 -1.52097,-0.59466 l -0.15777,-0.0441 0.3012,0.0134 c 0.16566,0.007 0.61101,0.0327 0.98966,0.0563 2.15198,0.13386 5.13258,0.2445 6.60488,0.24517 0.35104,1.6e-4 0.63825,0.007 0.63825,0.0155 0,0.0448 -2.24844,3.11691 -3.61043,4.93303 -1.30542,1.74068 -3.86691,5.06705 -3.92851,5.10158 -0.0109,0.006 -0.0358,0.005 -0.0555,-0.002 z"
     id="path2469" />
  <path
     style="fill:#dce4f6;fill-opacity:1;stroke-width:0.0286857"
     d="m 338.59136,421.89229 c 0,-0.011 0.0516,-0.076 0.11474,-0.14448 0.0631,-0.0685 0.11475,-0.14151 0.11475,-0.16233 0,-0.15465 -1.13817,-0.89255 -3.57137,-2.31539 -0.31554,-0.18451 -0.83834,-0.49031 -1.16177,-0.67955 -1.2701,-0.74314 -4.69558,-2.706 -7.87422,-4.51207 -0.53642,-0.30479 -1.25285,-0.71194 -1.59205,-0.90477 -0.33921,-0.19283 -0.85555,-0.48569 -1.14743,-0.6508 -0.29188,-0.16511 -0.89212,-0.50462 -1.33388,-0.75448 -0.44176,-0.24986 -1.08074,-0.6116 -1.41994,-0.80385 -1.96441,-1.1134 -5.55111,-3.13666 -9.15074,-5.16195 -1.50671,-0.84773 -2.83629,-1.5965 -2.95462,-1.66393 -0.11833,-0.0674 -0.3765,-0.2134 -0.57371,-0.32439 -0.94816,-0.5336 -2.26923,-1.27661 -6.62639,-3.72686 -2.59534,-1.45949 -4.81561,-2.70841 -4.93394,-2.7754 -0.11833,-0.067 -0.31841,-0.18026 -0.44463,-0.25174 -0.12621,-0.0715 -1.63652,-0.92026 -3.35622,-1.88618 -1.71971,-0.96592 -3.22355,-1.81141 -3.34188,-1.87887 -0.11833,-0.0675 -0.8993,-0.50646 -1.73549,-0.97555 -0.83618,-0.46909 -1.61715,-0.90798 -1.73548,-0.97532 -0.11833,-0.0673 -0.8993,-0.50622 -1.73548,-0.97531 -0.83619,-0.46909 -1.61716,-0.90798 -1.73549,-0.97531 -0.11832,-0.0673 -0.89929,-0.50622 -1.73548,-0.97531 -0.83619,-0.4691 -1.61715,-0.90799 -1.73548,-0.97532 -0.11833,-0.0673 -0.8993,-0.50622 -1.73549,-0.97531 -0.83618,-0.46909 -1.61715,-0.90798 -1.73548,-0.97531 -0.11833,-0.0673 -0.8993,-0.50622 -1.73548,-0.97532 -0.83619,-0.46909 -1.60102,-0.89927 -1.69963,-0.95595 l -0.17928,-0.10306 v -2.5913 -2.59131 l 0.12191,0.0704 c 0.067,0.0387 1.01906,0.57615 2.11557,1.19433 1.09651,0.61817 2.09047,1.1795 2.2088,1.24739 0.24044,0.13796 1.39615,0.78932 10.16907,5.73132 8.7341,4.92013 8.67863,4.88889 12.93724,7.28587 8.74347,4.92132 25.94555,14.57967 30.20601,16.95959 0.45754,0.25559 1.65803,0.92681 2.66777,1.49162 3.66183,2.04828 7.31704,4.08164 8.93117,4.96835 0.55923,0.30721 0.77265,0.41092 0.82074,0.39885 0.31968,-0.0802 2.40635,-2.40273 5.23447,-5.82606 0.94219,-1.14048 0.85189,-1.04161 0.9029,-0.98863 0.0351,0.0365 -0.0579,0.16112 -0.70555,0.9456 -2.73282,3.31018 -5.4478,6.44205 -8.24887,9.51552 -0.54129,0.59392 -0.60967,0.66375 -0.60967,0.6226 z"
     id="path2508" />
  <path
     style="fill:#dce4f6;fill-opacity:1;stroke-width:0.162271"
     d="m 170.83046,274.84604 c -5.73424,-3.22911 -10.42589,-5.92319 -10.42589,-5.98684 0,-0.0636 0.93103,-0.87489 2.06895,-1.80274 5.19037,-4.2322 10.42261,-7.72498 16.23219,-10.83578 l 2.64201,-1.4147 2.32412,1.31823 c 1.27827,0.72502 4.39765,2.47527 6.93195,3.88944 l 4.60784,2.57121 -2.35293,2.37894 c -2.699,2.72884 -4.6683,5.0444 -6.68939,7.8656 -1.47018,2.05219 -3.49857,5.35065 -4.28364,6.96582 -0.24944,0.51318 -0.49308,0.93055 -0.54142,0.92749 -0.0483,-0.003 -4.77955,-2.64756 -10.51379,-5.87667 z"
     id="path2547" />
  <path
     style="fill:#dce4f6;fill-opacity:1;stroke-width:0.162271"
     d="m 184.17722,334.15013 c -1.16023,-0.66258 -3.02229,-1.71776 -4.1379,-2.34483 -1.11561,-0.62707 -2.90465,-1.6335 -3.97563,-2.2365 -1.07099,-0.60301 -5.23323,-2.9386 -9.24943,-5.19022 -8.01129,-4.49139 -14.11692,-7.92676 -16.87615,-9.49547 -0.98174,-0.55815 -4.5233,-2.56626 -7.87013,-4.46248 -7.6461,-4.33205 -8.76262,-5.00086 -8.76262,-5.24895 0,-0.42907 4.12015,-8.4427 5.66146,-11.01146 2.00644,-3.34394 3.10116,-4.98845 3.10116,-4.65865 0,0.15885 1.61934,1.16388 4.42188,2.7444 2.43203,1.37157 5.15209,2.9107 6.04458,3.42028 2.0434,1.16671 9.34484,5.26076 17.4441,9.78122 5.97749,3.33623 6.25238,3.5103 6.36215,4.02878 0.0631,0.29804 0.26983,1.6007 0.45939,2.89481 1.06789,7.29045 4.01186,14.72928 8.37414,21.15979 0.65982,0.97265 1.18006,1.78095 1.1561,1.79622 -0.024,0.0153 -0.99286,-0.51435 -2.1531,-1.17694 z"
     id="path2586" />
  <path
     style="fill:#dce4f6;fill-opacity:1;stroke-width:0.162271"
     d="m 178.54149,286.09991 c -0.54375,-0.54375 -2.15552,-1.49725 -10.59134,-6.26569 -10.66368,-6.02776 -11.91654,-6.7469 -12.00581,-6.89135 -0.046,-0.0744 0.91846,-1.0463 2.14325,-2.1597 l 2.2269,-2.02438 0.49128,0.36389 c 0.52562,0.38932 8.51437,4.93917 15.82587,9.01333 2.45434,1.36763 4.51857,2.53364 4.58718,2.59115 0.0686,0.0575 -0.1434,0.68371 -0.47111,1.39157 -0.32771,0.70785 -0.86154,1.98983 -1.1863,2.84883 l -0.59045,1.56182 z"
     id="path2625" />
  <path
     style="fill:#dce4f6;fill-opacity:1;stroke-width:0.162271"
     d="m 191.60648,256.57696 c -3.41081,-1.9307 -6.14913,-3.55983 -6.08515,-3.6203 0.24827,-0.23466 6.58065,-2.66501 9.12235,-3.50114 4.41746,-1.45319 11.25757,-3.09107 15.57428,-3.72931 l 0.88877,-0.1314 2.51891,1.43502 c 1.3854,0.78926 2.54482,1.46062 2.5765,1.49191 0.0317,0.0313 -0.68029,0.42718 -1.58214,0.87975 -0.90185,0.45257 -1.63973,0.89952 -1.63973,0.99323 0,0.0937 -0.073,0.12523 -0.16227,0.0701 -0.0893,-0.0551 -0.16227,-0.0108 -0.16227,0.0986 0,0.10939 -0.0473,0.1516 -0.1051,0.0938 -0.12844,-0.12843 -1.35534,0.54103 -1.35534,0.73955 0,0.0781 -0.073,0.0968 -0.16227,0.0417 -0.0892,-0.0552 -0.16227,-0.0187 -0.16227,0.0811 0,0.0998 -0.0704,0.13794 -0.15635,0.0848 -0.086,-0.0532 -0.29898,0.046 -0.47329,0.2203 -0.17432,0.17432 -0.35954,0.27435 -0.4116,0.22228 -0.0521,-0.0521 -0.0947,-0.005 -0.0947,0.10424 0,0.10939 -0.062,0.1606 -0.13769,0.11379 -0.0757,-0.0468 -0.27654,0.0443 -0.44625,0.20236 -0.1697,0.1581 -0.36408,0.30014 -0.43195,0.31564 -0.3554,0.0812 -1.09362,0.55206 -1.09362,0.69759 0,0.0922 -0.062,0.12938 -0.1377,0.0826 -0.0757,-0.0468 -0.29175,0.0584 -0.48003,0.23383 -0.18828,0.17541 -0.4184,0.31893 -0.51138,0.31893 -0.093,0 -0.16906,0.0773 -0.16906,0.17184 0,0.0945 -0.0735,0.1264 -0.16342,0.0708 -0.0899,-0.0555 -0.20706,0.0128 -0.26041,0.15176 -0.0533,0.13902 -0.16287,0.21204 -0.2434,0.16228 -0.0805,-0.0498 -0.19006,0.0233 -0.24341,0.16227 -0.0533,0.13901 -0.16288,0.21204 -0.2434,0.16227 -0.0805,-0.0498 -0.19023,0.0237 -0.24377,0.1632 -0.0535,0.13953 -0.19907,0.25369 -0.32339,0.25369 -0.12433,0 -0.22605,0.073 -0.22605,0.16227 0,0.0892 -0.10953,0.16227 -0.2434,0.16227 -0.13388,0 -0.24341,0.073 -0.24341,0.16227 0,0.0892 -0.0989,0.16227 -0.21971,0.16227 -0.12084,0 -0.40496,0.17169 -0.63138,0.38153 -0.22642,0.20983 -0.52917,0.42661 -0.67278,0.48172 -0.14361,0.0551 -0.26111,0.17981 -0.26111,0.27713 0,0.0973 -0.0735,0.13149 -0.16341,0.0759 -0.0899,-0.0555 -0.20723,0.0132 -0.26077,0.15269 -0.0535,0.13953 -0.1848,0.25369 -0.29169,0.25369 -0.10688,0 -0.47336,0.25558 -0.81438,0.56795 -0.34103,0.31237 -0.68328,0.56794 -0.76056,0.56794 -0.0773,0 -0.2317,0.14605 -0.34318,0.32455 -0.11147,0.17849 -0.29403,0.32454 -0.40567,0.32454 -0.11165,0 -0.29421,0.14604 -0.40568,0.32454 -0.11147,0.1785 -0.34941,0.31721 -0.52876,0.30824 -0.17934,-0.009 -3.11674,-1.59595 -6.52755,-3.52664 z"
     id="path2664" />
  <path
     style="fill:#dce4f6;fill-opacity:1;stroke-width:0.162271"
     d="m 301.66119,262.5419 c -1.85769,-0.4256 -5.62134,-1.07029 -8.35694,-1.4315 -1.2941,-0.17088 -2.22118,-0.3176 -2.06016,-0.32605 0.44179,-0.0232 5.29246,-4.86386 11.2002,-11.17713 l 0.94538,-1.01027 1.32641,0.58319 c 2.88049,1.26646 7.89839,3.68962 7.89839,3.81417 0,0.17376 -9.40084,9.89 -9.54438,9.8646 -0.0609,-0.0108 -0.6949,-0.15343 -1.4089,-0.31701 z"
     id="path2703" />
  <path
     style="fill:#dce4f6;fill-opacity:1;stroke-width:0.162271"
     d="m 189.36988,259.25407 c -3.21296,-1.80713 -6.31187,-3.5513 -6.88646,-3.87594 l -1.04472,-0.59025 0.88245,-0.39955 c 0.48534,-0.21975 1.37673,-0.62788 1.98086,-0.90696 l 1.09841,-0.50741 0.84884,0.54242 c 1.31521,0.84044 7.42995,4.31922 9.73104,5.53616 l 2.06683,1.09305 -0.28185,0.37611 c -0.15502,0.20687 -0.32868,0.34773 -0.3859,0.31304 -0.0572,-0.0347 -0.36168,0.22212 -0.67659,0.57068 -0.31491,0.34857 -0.60322,0.60309 -0.6407,0.56561 -0.0375,-0.0375 -0.20072,0.0784 -0.36275,0.25739 -0.16203,0.17905 -0.33805,0.32235 -0.39116,0.31844 -0.0531,-0.004 -2.72534,-1.48566 -5.9383,-3.29279 z"
     id="path2742" />
  <path
     style="fill:#dce4f6;fill-opacity:1;stroke-width:0.162271"
     d="m 274.07518,426.22022 c -4.1558,-2.33978 -46.76822,-26.29342 -78.70128,-44.2402 -6.24742,-3.51113 -24.71747,-13.89151 -41.04455,-23.06751 -16.32708,-9.176 -29.7426,-16.68365 -29.81226,-16.68365 -0.0697,0 -0.10416,2.79309 -0.0767,6.20686 0.037,4.59279 0.12036,6.75542 0.32065,8.31637 0.61434,4.78783 1.38872,8.57774 2.56507,12.55383 0.35286,1.19267 0.61831,2.19176 0.58988,2.22017 -0.0638,0.0638 -1.94997,-3.27884 -3.98734,-7.06614 -13.10976,-24.36993 -23.57659,-51.18459 -30.846917,-79.02582 -1.196143,-4.58055 -3.751744,-15.84557 -3.751744,-16.53758 0,-0.13952 4.863215,-4.20322 8.681482,-7.25424 31.409189,-25.09777 70.820519,-48.06539 114.319699,-66.62171 12.03048,-5.13209 24.66297,-10.00609 34.88819,-13.46094 l 4.30017,-1.45292 3.16428,1.08032 c 32.25297,11.01159 67.75084,27.27354 97.84922,44.8258 21.32714,12.43719 40.8344,25.94183 57.64043,39.9038 l 3.41309,2.83549 -0.10322,0.75483 c -0.1611,1.17807 -1.80364,8.46027 -2.87873,12.76287 -7.74505,30.99637 -20.39731,62.6839 -35.6527,89.2921 -4.5941,8.01294 -8.90922,14.84824 -14.18649,22.47183 l -2.10614,3.04257 -1.88666,0.0324 -1.88665,0.0324 1.82851,0.0894 1.82853,0.0893 -1.03092,1.41424 c -0.62326,0.85502 -1.08963,1.35557 -1.17943,1.26587 -0.0898,-0.0897 -0.15747,0.004 -0.17116,0.23669 -0.0225,0.3834 -0.20773,0.67733 -0.74815,1.18745 -0.15619,0.14742 -0.28398,0.35354 -0.28398,0.45804 0,0.10449 -0.10953,0.232 -0.2434,0.28337 -0.13388,0.0514 -0.24341,0.19742 -0.24341,0.32454 0,0.12713 -0.10953,0.27317 -0.2434,0.32455 -0.13388,0.0514 -0.24341,0.19741 -0.24341,0.32454 0,0.12712 -0.10953,0.27316 -0.24341,0.32454 -0.13387,0.0514 -0.2434,0.20266 -0.2434,0.33619 0,0.13353 -0.14809,0.32204 -0.32909,0.41892 -0.18099,0.0969 -0.29116,0.23748 -0.2448,0.3125 0.0464,0.075 -0.10398,0.25973 -0.33407,0.4105 -0.2301,0.15076 -0.37598,0.3165 -0.32418,0.3683 0.0518,0.0518 -0.0526,0.19701 -0.23205,0.32268 -0.17942,0.12568 -0.28644,0.29286 -0.23782,0.37152 0.0486,0.0787 -0.0597,0.22229 -0.2407,0.31915 -0.18099,0.0969 -0.32908,0.28308 -0.32908,0.41382 0,0.13073 -0.0664,0.2377 -0.1476,0.2377 -0.16766,0 -3.09782,3.62308 -3.09782,3.83038 0,0.0742 -0.19391,0.30155 -0.43091,0.5052 -0.23701,0.20365 -0.3774,0.37027 -0.31201,0.37027 0.24031,0 -6.39617,7.65445 -9.49658,10.95327 -0.83881,0.89249 -2.5835,2.66326 -3.87705,3.93506 l -2.35194,2.31236 -26.45111,-0.006 -26.45111,-0.006 -4.70585,-2.64947 z m 76.59176,-29.30614 c 0.0622,-0.10067 -0.19594,-0.15352 -0.68008,-0.13924 l -0.78036,0.023 0.64909,0.11621 c 0.35699,0.0639 0.66302,0.12657 0.68007,0.13925 0.017,0.0127 0.0761,-0.05 0.13128,-0.13925 z m 2.15009,0.046 c -0.24544,-0.0372 -0.64706,-0.0372 -0.89249,0 -0.24544,0.0372 -0.0446,0.0676 0.44624,0.0676 0.49087,0 0.69168,-0.0304 0.44625,-0.0676 z m -4.38469,-0.30635 c -0.0539,-0.0539 -0.19388,-0.0597 -0.31102,-0.0128 -0.12944,0.0518 -0.091,0.0903 0.098,0.098 0.17105,0.007 0.26691,-0.0313 0.21298,-0.0852 z m -3.08314,-0.32454 c -0.0539,-0.0539 -0.19388,-0.0597 -0.31102,-0.0128 -0.12945,0.0518 -0.091,0.0902 0.098,0.098 0.17105,0.007 0.2669,-0.0313 0.21298,-0.0852 z m -2.59633,-0.32454 c -0.0539,-0.0539 -0.19388,-0.0597 -0.31103,-0.0128 -0.12944,0.0518 -0.091,0.0902 0.0981,0.098 0.17105,0.007 0.2669,-0.0313 0.21298,-0.0852 z m -2.27179,-0.32454 c -0.0539,-0.0539 -0.19388,-0.0597 -0.31102,-0.0128 -0.12945,0.0518 -0.091,0.0903 0.098,0.098 0.17105,0.007 0.2669,-0.0313 0.21298,-0.0852 z m -5.5172,-1.1359 c -0.0539,-0.0539 -0.19388,-0.0597 -0.31103,-0.0128 -0.12944,0.0518 -0.091,0.0903 0.0981,0.098 0.17105,0.007 0.2669,-0.0313 0.21298,-0.0852 z m -63.07936,-13.68812 v -2.5895 l -0.68965,-0.39477 c -0.3793,-0.21713 -4.34074,-2.45825 -8.80318,-4.98028 -4.46244,-2.52204 -8.25757,-4.68417 -8.43361,-4.80474 -0.27607,-0.18907 -0.0182,-0.21921 1.87546,-0.21921 h 2.19554 l 1.46106,-1.501 c 0.80358,-0.82555 9.88922,-10.33664 20.19029,-21.13576 37.30095,-39.10442 49.48409,-51.8007 57.0563,-59.45947 l 3.75767,-3.80063 0.17714,0.63635 c 0.35259,1.26664 0.99984,4.30199 1.24948,5.85948 0.33769,2.10689 0.49207,11.19849 0.24904,14.66621 -0.45652,6.51424 -2.86841,14.1782 -6.50858,20.68146 -2.05316,3.66802 -6.11089,9.31234 -7.21461,10.03551 -0.22919,0.15017 -0.41669,0.36568 -0.41669,0.47891 0,0.32007 -1.31486,1.52959 -1.94725,1.79124 -0.31237,0.12925 -1.15212,0.3218 -1.86611,0.4279 -5.4884,0.81559 -9.26262,2.79329 -12.93653,6.77876 -1.21602,1.31917 -2.87274,3.74766 -3.73451,5.47424 -0.90711,1.81743 -2.42457,5.85321 -2.88349,7.66883 -0.16444,0.65059 -0.24819,0.72777 -1.42563,1.31381 -0.68801,0.34245 -2.18208,1.01099 -3.32017,1.48565 -1.13808,0.47466 -2.04079,0.89147 -2.00604,0.92622 0.0348,0.0348 1.25801,-0.45786 2.71833,-1.09471 1.46032,-0.63686 2.83768,-1.19937 3.0608,-1.25003 0.22312,-0.0507 0.46641,-0.17251 0.54064,-0.27077 0.0742,-0.0983 0.093,0.29598 0.0418,0.8761 -0.24894,2.81709 -0.25314,3.02791 -0.0324,1.62271 0.6785,-4.31955 1.74269,-7.70127 3.53329,-11.2279 2.83215,-5.57791 7.05024,-9.41325 12.2795,-11.16521 2.34557,-0.78584 4.13926,-1.0385 7.32876,-1.03234 3.33531,0.006 4.51472,0.25085 6.91739,1.43346 3.68872,1.81561 5.90642,4.49343 6.37866,7.70208 0.13009,0.88393 0.13324,0.88823 0.15263,0.20782 0.0221,-0.77489 -0.43506,-2.27643 -0.98196,-3.22551 -2.02686,-3.51723 -6.16291,-5.95295 -10.7388,-6.32403 -2.01625,-0.16351 -2.01641,-0.16365 -1.28848,-1.14533 0.33842,-0.4564 1.34768,-1.73154 2.24278,-2.83363 5.83306,-7.18195 9.58977,-14.81121 11.49395,-23.3424 0.86609,-3.88028 0.94981,-4.69761 1.03354,-10.09094 0.16295,-10.49636 -0.66346,-15.32665 -3.7712,-22.04205 -0.50267,-1.0862 -0.87936,-2.00951 -0.83708,-2.05178 0.0906,-0.0906 2.02727,1.06358 4.08406,2.43408 3.98881,2.65787 7.33925,5.40817 10.7991,8.86479 7.46734,7.46034 11.53667,15.00289 12.91637,23.94066 0.41563,2.69241 0.42622,10.48174 0.0179,13.18429 -1.20519,7.97742 -4.12669,14.68618 -8.85502,20.33408 -3.69141,4.4093 -8.68953,7.98665 -13.58022,9.71985 -1.5183,0.53807 -4.30017,1.32737 -4.30017,1.2201 0,-0.0339 0.25463,-0.64071 0.56585,-1.34855 0.63217,-1.43784 1.2266,-3.70529 1.19821,-4.57049 -0.0138,-0.41828 -0.0549,-0.3205 -0.15606,0.3711 -0.20329,1.38939 -0.70554,2.94894 -1.43519,4.45645 -0.64403,1.33066 -0.64564,1.33874 -0.26588,1.33874 0.21014,0 1.09032,-0.18402 1.95593,-0.40892 10.8273,-2.81318 20.06724,-12.34832 23.70718,-24.46463 1.31295,-4.37042 1.75975,-7.7179 1.75902,-13.17893 0,-4.98085 -0.20844,-6.95965 -1.10153,-10.49027 -2.73577,-10.81542 -10.59517,-20.80196 -22.86415,-29.05234 -2.9907,-2.01112 -9.73937,-5.8187 -9.94636,-5.61171 -0.041,0.041 0.81114,0.54211 1.89366,1.11357 1.08253,0.57146 2.25128,1.2946 2.59724,1.60697 0.65579,0.5921 1.98272,3.11291 3.05931,5.8118 l 0.53825,1.34935 -3.80131,3.84331 c -2.09072,2.11382 -5.95364,6.07047 -8.58428,8.79256 -11.06069,11.44522 -57.26235,59.80072 -65.39596,68.44459 l -4.77814,5.07791 -2.7586,-0.0871 c -4.8779,-0.15396 -15.17231,-1.45511 -15.17231,-1.91768 0,-0.24634 0.71024,-1.0157 5.57726,-6.04152 6.4151,-6.62441 8.25671,-8.53297 12.68068,-13.14181 2.14061,-2.23006 4.7001,-4.89535 5.68779,-5.92288 6.92645,-7.20589 27.17577,-28.36846 36.56765,-38.21686 2.72357,-2.85596 5.80035,-6.06892 6.83726,-7.13991 1.03693,-1.07098 5.74928,-5.99801 10.47191,-10.94895 4.72262,-4.95094 9.79145,-10.25924 11.26405,-11.79622 l 2.67747,-2.79451 0.0499,0.84295 c 0.0274,0.46362 0.10044,0.89269 0.16227,0.9535 0.256,0.2518 0.38682,-6.39842 0.14797,-7.5219 -0.11696,-0.55015 -0.27294,-0.68289 -2.02838,-1.72631 -26.59821,-15.80961 -54.58656,-25.95046 -82.22567,-29.79234 -6.73648,-0.93638 -12.39519,-1.37488 -19.39135,-1.50265 -6.15789,-0.11246 -12.99017,0.19764 -15.24222,0.69182 -0.3528,0.0774 0.27862,0.75978 5.9806,6.46313 l 6.37505,6.37658 -4.03335,0.0938 c -6.75698,0.15714 -13.20602,1.04922 -20.18674,2.79238 -22.89971,5.7183 -43.11563,19.38281 -57.13524,38.61929 -2.10323,2.88587 -2.62044,3.66041 -2.3759,3.55798 0.11476,-0.0481 0.50075,-0.5363 0.85775,-1.08496 0.91773,-1.41045 3.81816,-5.30219 5.16884,-6.93546 2.48517,-3.0051 6.68293,-7.59785 7.43181,-8.13111 l 0.46394,-0.33035 2.23032,1.29088 c 1.22668,0.70998 5.60005,3.19284 9.71861,5.51747 6.77748,3.8254 9.80141,5.59424 10.66801,6.24023 0.29679,0.22123 0.28003,0.33242 -0.52738,3.5006 -0.45865,1.79967 -0.83137,3.50924 -0.82828,3.79905 0.003,0.28982 0.29693,-0.6049 0.65297,-1.98826 2.3634,-9.18277 6.47229,-16.69002 13.27831,-24.26045 4.50718,-5.0134 10.98806,-10.22864 17.79841,-14.32261 4.53315,-2.72504 12.7775,-6.70241 15.99276,-7.71546 0.61347,-0.1933 1.1154,-0.41765 1.1154,-0.49856 0,-0.0809 -2.82077,-2.9791 -6.26838,-6.44041 l -6.26838,-6.29328 0.54834,-0.0925 c 2.95635,-0.49881 14.96271,-0.75388 20.30524,-0.43137 11.33558,0.68429 23.09012,2.51965 33.95469,5.30172 2.32048,0.5942 4.67392,1.19475 5.22987,1.33455 l 1.01082,0.25419 -0.92968,0.98434 c -5.31183,5.62404 -33.55325,35.19027 -60.07177,62.88973 -28.56299,29.83497 -28.77001,30.04797 -28.98525,29.82205 -0.3399,-0.35678 -1.82309,-3.03664 -2.89903,-5.23805 -1.86625,-3.81838 -3.09466,-7.34659 -4.03957,-11.60235 -0.88277,-3.97587 -0.95184,-4.95192 -0.86458,-12.21826 0.0442,-3.67745 0.13273,-6.94185 0.19682,-7.25422 0.0649,-0.31607 0.0546,-0.50921 -0.0231,-0.43551 -0.0768,0.0728 -0.18894,0.584 -0.24921,1.1359 -0.0603,0.5519 -0.18693,1.5146 -0.28145,2.13935 -0.0945,0.62474 -0.17425,3.20063 -0.17717,5.7242 l -0.005,4.58832 -0.52738,-0.26707 -0.52738,-0.26706 0.59887,0.54687 c 0.59643,0.54465 0.6006,0.55764 1.02507,3.19604 1.29326,8.03844 3.82336,14.5224 8.33758,21.36689 0.58863,0.89249 1.10735,1.74392 1.1527,1.89207 0.16311,0.5328 4.39648,5.29606 6.75838,7.60432 4.29045,4.19301 8.94662,7.7433 14.5004,11.05644 8.88741,5.30184 19.59539,9.40513 30.83508,11.81597 3.71271,0.79636 1.09202,-0.53329 20.28019,10.28944 7.18453,4.0523 13.11755,7.37556 13.18449,7.38503 0.0669,0.009 0.1217,-1.14803 0.1217,-2.57225 z m 33.24566,-9.4255 c -0.18218,-0.57629 -0.46516,-1.705 -0.62884,-2.50824 -0.16367,-0.80324 -0.30376,-1.29305 -0.31127,-1.08848 -0.007,0.20456 0.10038,0.92417 0.2398,1.59911 0.13941,0.67494 0.21728,1.26335 0.17305,1.3076 -0.0442,0.0442 -0.90679,-0.39257 -1.91676,-0.97066 -4.29816,-2.46021 -6.94785,-3.90624 -6.94785,-3.79169 0,0.0364 1.25963,0.76708 2.79917,1.62369 5.36105,2.98294 6.1701,3.51311 6.52432,4.27541 0.17461,0.37577 0.33597,0.66473 0.35856,0.64212 0.0226,-0.0226 -0.10798,-0.51258 -0.29018,-1.08886 z m -36.4505,-3.99501 c -0.11156,-0.045 -0.29412,-0.045 -0.40568,0 -0.11156,0.045 -0.0203,0.0819 0.20284,0.0819 0.22312,0 0.3144,-0.0368 0.20284,-0.0819 z m 1.46043,-0.16227 c -0.11156,-0.045 -0.29411,-0.045 -0.40567,0 -0.11156,0.045 -0.0203,0.0819 0.20284,0.0819 0.22312,0 0.3144,-0.0368 0.20283,-0.0819 z m 1.37593,-0.15284 c -0.0539,-0.0539 -0.19388,-0.0597 -0.31102,-0.0128 -0.12945,0.0518 -0.091,0.0903 0.098,0.098 0.17105,0.007 0.2669,-0.0313 0.21298,-0.0852 z m 1.38268,-0.1717 c -0.11156,-0.045 -0.29412,-0.045 -0.40568,0 -0.11156,0.045 -0.0203,0.0819 0.20284,0.0819 0.22312,0 0.3144,-0.0368 0.20284,-0.0819 z m 1.30124,-0.16124 c -0.10985,-0.0445 -0.32892,-0.0472 -0.48681,-0.006 -0.15787,0.0412 -0.068,0.0775 0.19976,0.0808 0.26774,0.003 0.39693,-0.0304 0.28705,-0.0748 z m 1.6602,-0.2181 c 0.67482,-0.17172 0.0107,-0.17933 -0.81136,-0.009 -0.54573,0.11289 -0.57156,0.13418 -0.16227,0.13372 0.26775,0 0.70588,-0.0563 0.97363,-0.12441 z m 1.09532,-0.26975 c -0.11156,-0.045 -0.29411,-0.045 -0.40567,0 -0.11156,0.045 -0.0203,0.0819 0.20284,0.0819 0.22312,0 0.31439,-0.0368 0.20283,-0.0819 z m 1.66565,-0.2209 c 0.0677,-0.10946 -0.13654,-0.12942 -0.59894,-0.0585 -0.92727,0.14213 -0.98981,0.22465 -0.17027,0.22465 0.3666,0 0.71274,-0.0747 0.76921,-0.16611 z m 2.17476,-0.4175 c 0.19147,-0.18541 -0.16592,-0.17681 -1.04124,0.0251 l -0.97362,0.22454 0.97362,-0.0921 c 0.5355,-0.0506 1.00405,-0.12152 1.04124,-0.15753 z m 14.45561,0.019 c 0,-0.0428 -0.29208,-0.22684 -0.64908,-0.40897 -0.357,-0.18213 -0.64908,-0.29489 -0.64908,-0.25058 0,0.0443 0.27383,0.22512 0.60851,0.4018 0.68852,0.36349 0.68965,0.36391 0.68965,0.25775 z m -12.4137,-0.48318 c 0.44624,-0.0651 0.89943,-0.19091 1.00708,-0.27949 0.10765,-0.0886 0.27515,-0.11197 0.37222,-0.052 0.0971,0.06 0.26456,0.0389 0.37221,-0.0468 0.10765,-0.0857 0.4148,-0.19704 0.68255,-0.24738 1.14986,-0.21623 1.80771,-0.39146 2.13942,-0.56991 0.19494,-0.10488 0.53747,-0.19069 0.7612,-0.19069 0.22372,0 0.4519,-0.073 0.50706,-0.16227 0.0552,-0.0892 0.27854,-0.16227 0.49639,-0.16227 0.21786,0 0.3961,-0.0809 0.3961,-0.17986 0,-0.24903 0.63552,-0.0705 2.10689,0.5919 1.29263,0.58194 1.26448,0.52005 -0.11908,-0.26176 -0.46855,-0.26476 -0.85153,-0.53468 -0.85104,-0.5998 0,-0.0651 0.80791,-0.40022 1.79431,-0.74466 0.98638,-0.34442 1.76296,-0.65671 1.7257,-0.69395 -0.0372,-0.0372 -0.64388,0.14358 -1.34807,0.40185 -2.08993,0.7665 -6.1226,1.9743 -9.02593,2.70331 -1.49336,0.37498 -2.67245,0.72453 -2.62022,0.77678 0.0522,0.0523 0.2518,0.0366 0.44342,-0.0348 0.19165,-0.0714 0.71354,-0.18311 1.15979,-0.24825 z m 12.57597,-3.98256 c 0.13388,-0.0865 0.17039,-0.1573 0.0811,-0.1573 -0.0892,0 -0.2718,0.0708 -0.40568,0.1573 -0.13387,0.0865 -0.17038,0.15731 -0.0811,0.15731 0.0892,0 0.2718,-0.0708 0.40567,-0.15731 z m 1.29817,-0.51418 c 0.16917,-0.10452 0.11967,-0.11729 -0.16227,-0.0419 -0.22312,0.0597 -0.51521,0.1762 -0.64908,0.25891 -0.16917,0.10452 -0.11968,0.11729 0.16227,0.0419 0.22312,-0.0597 0.51521,-0.17619 0.64908,-0.2589 z m 0.81135,-0.29717 c 0.13388,-0.0865 0.17039,-0.1573 0.0811,-0.1573 -0.0892,0 -0.27181,0.0708 -0.40568,0.1573 -0.13387,0.0865 -0.17038,0.15731 -0.0811,0.15731 0.0892,0 0.2718,-0.0708 0.40567,-0.15731 z m 43.43813,-13.4279 c -0.0408,-0.15618 -0.0742,-0.0284 -0.0742,0.28398 0,0.31237 0.0334,0.44015 0.0742,0.28397 0.0408,-0.15619 0.0408,-0.41176 0,-0.56795 z M 133.62991,305.47456 c -0.11111,-0.13388 -0.28435,-0.24109 -0.38498,-0.23825 -0.10064,0.003 -0.0412,0.11237 0.13202,0.24341 0.40465,0.30606 0.50947,0.30392 0.25296,-0.005 z m 2.42079,-5.84175 c 0.82509,-1.60648 1.42596,-2.84785 1.33528,-2.7586 -0.19965,0.1965 -2.94472,5.49272 -2.94472,5.68142 0,0.20803 0.0215,0.16892 1.60944,-2.92282 z m 2.04165,-3.81336 c 0.13846,-0.26775 0.21523,-0.48681 0.1706,-0.48681 -0.0446,0 -0.19441,0.21906 -0.33287,0.48681 -0.13846,0.26775 -0.21523,0.48681 -0.17061,0.48681 0.0446,0 0.19442,-0.21906 0.33288,-0.48681 z m 39.0261,-1.39845 c 0,-0.22913 -0.0706,-0.36204 -0.16227,-0.30539 -0.0892,0.0552 -0.16227,0.28284 -0.16227,0.50596 0,0.22913 0.0706,0.36204 0.16227,0.30539 0.0893,-0.0552 0.16227,-0.28284 0.16227,-0.50596 z"
     id="path2781" />
  <rect
     style="fill:#dce4f6;fill-opacity:1"
     id="rect4673"
     width="80.973068"
     height="61.662857"
     x="192.29076"
     y="230.2621" />
  <rect
     style="fill:#dce4f6;fill-opacity:1"
     id="rect4675"
     width="83.893944"
     height="94.116997"
     x="263.52759"
     y="225.88078" />
  <rect
     style="fill:#dce4f6;fill-opacity:1"
     id="rect4677"
     width="57.849483"
     height="27.58601"
     x="237.56427"
     y="361.21454" />
  <rect
     style="fill:#dce4f6;fill-opacity:1"
     id="rect4679"
     width="194.72481"
     height="110.50632"
     x="175.09006"
     y="254.60269" />
</svg>
